%TF.GenerationSoftware,KiCad,Pcbnew,(6.0.10)*%
%TF.CreationDate,2023-02-17T12:11:47-08:00*%
%TF.ProjectId,lab4p1,6c616234-7031-42e6-9b69-6361645f7063,rev?*%
%TF.SameCoordinates,Original*%
%TF.FileFunction,Legend,Top*%
%TF.FilePolarity,Positive*%
%FSLAX46Y46*%
G04 Gerber Fmt 4.6, Leading zero omitted, Abs format (unit mm)*
G04 Created by KiCad (PCBNEW (6.0.10)) date 2023-02-17 12:11:47*
%MOMM*%
%LPD*%
G01*
G04 APERTURE LIST*
%ADD10C,0.150000*%
%ADD11C,0.120000*%
G04 APERTURE END LIST*
D10*
%TO.C,R1*%
X115289880Y-77199166D02*
X114813690Y-77532500D01*
X115289880Y-77770595D02*
X114289880Y-77770595D01*
X114289880Y-77389642D01*
X114337500Y-77294404D01*
X114385119Y-77246785D01*
X114480357Y-77199166D01*
X114623214Y-77199166D01*
X114718452Y-77246785D01*
X114766071Y-77294404D01*
X114813690Y-77389642D01*
X114813690Y-77770595D01*
X115289880Y-76246785D02*
X115289880Y-76818214D01*
X115289880Y-76532500D02*
X114289880Y-76532500D01*
X114432738Y-76627738D01*
X114527976Y-76722976D01*
X114575595Y-76818214D01*
%TO.C,R2*%
X130909880Y-64499166D02*
X130433690Y-64832500D01*
X130909880Y-65070595D02*
X129909880Y-65070595D01*
X129909880Y-64689642D01*
X129957500Y-64594404D01*
X130005119Y-64546785D01*
X130100357Y-64499166D01*
X130243214Y-64499166D01*
X130338452Y-64546785D01*
X130386071Y-64594404D01*
X130433690Y-64689642D01*
X130433690Y-65070595D01*
X130005119Y-64118214D02*
X129957500Y-64070595D01*
X129909880Y-63975357D01*
X129909880Y-63737261D01*
X129957500Y-63642023D01*
X130005119Y-63594404D01*
X130100357Y-63546785D01*
X130195595Y-63546785D01*
X130338452Y-63594404D01*
X130909880Y-64165833D01*
X130909880Y-63546785D01*
%TO.C,J1*%
X127149166Y-71044880D02*
X127149166Y-71759166D01*
X127101547Y-71902023D01*
X127006309Y-71997261D01*
X126863452Y-72044880D01*
X126768214Y-72044880D01*
X128149166Y-72044880D02*
X127577738Y-72044880D01*
X127863452Y-72044880D02*
X127863452Y-71044880D01*
X127768214Y-71187738D01*
X127672976Y-71282976D01*
X127577738Y-71330595D01*
%TO.C,D1*%
X117319420Y-88469126D02*
X117319420Y-87469126D01*
X117557516Y-87469126D01*
X117700373Y-87516746D01*
X117795611Y-87611984D01*
X117843230Y-87707222D01*
X117890849Y-87897698D01*
X117890849Y-88040555D01*
X117843230Y-88231031D01*
X117795611Y-88326269D01*
X117700373Y-88421507D01*
X117557516Y-88469126D01*
X117319420Y-88469126D01*
X118843230Y-88469126D02*
X118271801Y-88469126D01*
X118557516Y-88469126D02*
X118557516Y-87469126D01*
X118462277Y-87611984D01*
X118367039Y-87707222D01*
X118271801Y-87754841D01*
%TO.C,SW1*%
X119904166Y-66769761D02*
X120047023Y-66817380D01*
X120285119Y-66817380D01*
X120380357Y-66769761D01*
X120427976Y-66722142D01*
X120475595Y-66626904D01*
X120475595Y-66531666D01*
X120427976Y-66436428D01*
X120380357Y-66388809D01*
X120285119Y-66341190D01*
X120094642Y-66293571D01*
X119999404Y-66245952D01*
X119951785Y-66198333D01*
X119904166Y-66103095D01*
X119904166Y-66007857D01*
X119951785Y-65912619D01*
X119999404Y-65865000D01*
X120094642Y-65817380D01*
X120332738Y-65817380D01*
X120475595Y-65865000D01*
X120808928Y-65817380D02*
X121047023Y-66817380D01*
X121237500Y-66103095D01*
X121427976Y-66817380D01*
X121666071Y-65817380D01*
X122570833Y-66817380D02*
X121999404Y-66817380D01*
X122285119Y-66817380D02*
X122285119Y-65817380D01*
X122189880Y-65960238D01*
X122094642Y-66055476D01*
X121999404Y-66103095D01*
%TO.C,C1*%
X118942842Y-71739642D02*
X118895223Y-71787261D01*
X118752366Y-71834880D01*
X118657128Y-71834880D01*
X118514270Y-71787261D01*
X118419032Y-71692023D01*
X118371413Y-71596785D01*
X118323794Y-71406309D01*
X118323794Y-71263452D01*
X118371413Y-71072976D01*
X118419032Y-70977738D01*
X118514270Y-70882500D01*
X118657128Y-70834880D01*
X118752366Y-70834880D01*
X118895223Y-70882500D01*
X118942842Y-70930119D01*
X119895223Y-71834880D02*
X119323794Y-71834880D01*
X119609509Y-71834880D02*
X119609509Y-70834880D01*
X119514270Y-70977738D01*
X119419032Y-71072976D01*
X119323794Y-71120595D01*
D11*
%TO.C,R1*%
X111217500Y-85752500D02*
X111217500Y-84902500D01*
X113837500Y-69162500D02*
X108597500Y-69162500D01*
X111217500Y-68312500D02*
X111217500Y-69162500D01*
X108597500Y-84902500D02*
X113837500Y-84902500D01*
X113837500Y-84902500D02*
X113837500Y-69162500D01*
X108597500Y-69162500D02*
X108597500Y-84902500D01*
%TO.C,R2*%
X131457500Y-72202500D02*
X136697500Y-72202500D01*
X134077500Y-73052500D02*
X134077500Y-72202500D01*
X131457500Y-56462500D02*
X131457500Y-72202500D01*
X134077500Y-55612500D02*
X134077500Y-56462500D01*
X136697500Y-72202500D02*
X136697500Y-56462500D01*
X136697500Y-56462500D02*
X131457500Y-56462500D01*
%TO.C,J1*%
X125882500Y-72482500D02*
X125882500Y-72682500D01*
X124422500Y-73992500D02*
X125032500Y-73992500D01*
X125032500Y-76792500D02*
X129932500Y-76792500D01*
X127982500Y-73292500D02*
X127982500Y-72682500D01*
X127482500Y-76792500D02*
X127482500Y-76292500D01*
X124422500Y-72682500D02*
X124422500Y-77402500D01*
X127582500Y-76292500D02*
X127582500Y-76792500D01*
X126982500Y-73292500D02*
X125032500Y-73292500D01*
X130542500Y-72682500D02*
X124422500Y-72682500D01*
X129932500Y-73292500D02*
X127982500Y-73292500D01*
X125372500Y-72382500D02*
X124122500Y-72382500D01*
X125032500Y-73292500D02*
X125032500Y-76792500D01*
X130542500Y-73992500D02*
X129932500Y-73992500D01*
X124122500Y-72382500D02*
X124122500Y-73632500D01*
X126182500Y-72482500D02*
X125882500Y-72482500D01*
X130542500Y-77402500D02*
X130542500Y-72682500D01*
X124422500Y-77402500D02*
X130542500Y-77402500D01*
X127382500Y-76792500D02*
X127382500Y-76292500D01*
X127382500Y-76292500D02*
X127582500Y-76292500D01*
X129932500Y-76792500D02*
X129932500Y-73292500D01*
X126182500Y-72582500D02*
X125882500Y-72582500D01*
X126982500Y-72682500D02*
X126982500Y-73292500D01*
X126182500Y-72682500D02*
X126182500Y-72482500D01*
X124422500Y-75292500D02*
X125032500Y-75292500D01*
X130542500Y-75292500D02*
X129932500Y-75292500D01*
%TO.C,D1*%
X120617516Y-85601746D02*
X120617516Y-82511746D01*
X115067516Y-84056284D02*
G75*
G03*
X120617516Y-85601576I2990000J-462D01*
G01*
X120617516Y-82511916D02*
G75*
G03*
X115067516Y-84057208I-2560000J-1544830D01*
G01*
X120557516Y-84056746D02*
G75*
G03*
X120557516Y-84056746I-2500000J0D01*
G01*
%TO.C,SW1*%
X128537500Y-65165000D02*
X128537500Y-66465000D01*
X128237500Y-59565000D02*
X128237500Y-64765000D01*
X114237500Y-64765000D02*
X114237500Y-59565000D01*
X126187500Y-65515000D02*
X116287500Y-65515000D01*
X116287500Y-58815000D02*
X126187500Y-58815000D01*
X128537500Y-66465000D02*
X127237500Y-66465000D01*
%TO.C,C1*%
X116304734Y-73657500D02*
X116804734Y-73657500D01*
X116554734Y-73407500D02*
X116554734Y-73907500D01*
X121505506Y-74072500D02*
G75*
G03*
X116713512Y-74072500I-2395997J-1060001D01*
G01*
X116713512Y-76192500D02*
G75*
G03*
X121505506Y-76192500I2395997J1060001D01*
G01*
%TD*%
M02*
